<svg xmlns="http://www.w3.org/2000/svg" viewBox="0 0 512 512" role="img" aria-labelledby="title">
  <title id="title">Go Fetch food truck icon</title>
  <rect width="512" height="512" rx="112" fill="#f97316" />
  <path fill="#fff7ed" d="M96 176c0-26.5 21.5-48 48-48h170c17.4 0 33.4 9.4 41.9 24.6L392 216h24c17.7 0 32 14.3 32 32v72c0 17.7-14.3 32-32 32h-19.4c-7.4 28.8-33.5 50-64.6 50s-57.2-21.2-64.6-50H209c-7.4 28.8-33.5 50-64.6 50s-57.2-21.2-64.6-50H72c-17.7 0-32-14.3-32-32v-56c0-17.7 14.3-32 32-32h24v-56Zm48 186a28 28 0 1 0 0-56 28 28 0 0 0 0 56Zm188 0a28 28 0 1 0 0-56 28 28 0 0 0 0 56ZM144 176v56h178.8l-27.4-48.7A16 16 0 0 0 281.5 176H144Zm-40 112a16 16 0 1 0 0-32 16 16 0 0 0 0 32Z" />
  <path fill="#16a34a" d="M168 96c16 0 28 12 28 28s-12 28-28 28-28-12-28-28 12-28 28-28Zm76 0c16 0 28 12 28 28s-12 28-28 28-28-12-28-28 12-28 28-28Z" />
</svg>
